<svg width="35" height="35" viewBox="0 0 55 55" fill="none" xmlns="http://www.w3.org/2000/svg">
<path d="M44 44C40.9475 44 38.5 46.4475 38.5 49.5C38.5 50.9587 39.0795 52.3576 40.1109 53.3891C41.1424 54.4205 42.5413 55 44 55C45.4587 55 46.8576 54.4205 47.8891 53.3891C48.9205 52.3576 49.5 50.9587 49.5 49.5C49.5 48.0413 48.9205 46.6424 47.8891 45.6109C46.8576 44.5795 45.4587 44 44 44ZM0 0V5.5H5.5L15.4 26.3725L11.66 33.11C11.2475 33.88 11 34.7875 11 35.75C11 37.2087 11.5795 38.6076 12.6109 39.6391C13.6424 40.6705 15.0413 41.25 16.5 41.25H49.5V35.75H17.655C17.4727 35.75 17.2978 35.6776 17.1689 35.5486C17.0399 35.4197 16.9675 35.2448 16.9675 35.0625C16.9675 34.925 16.995 34.815 17.05 34.7325L19.525 30.25H40.0125C42.075 30.25 43.89 29.095 44.825 27.4175L54.67 9.625C54.8625 9.185 55 8.7175 55 8.25C55 7.52065 54.7103 6.82118 54.1945 6.30546C53.6788 5.78973 52.9793 5.5 52.25 5.5H11.5775L8.9925 0M16.5 44C13.4475 44 11 46.4475 11 49.5C11 50.9587 11.5795 52.3576 12.6109 53.3891C13.6424 54.4205 15.0413 55 16.5 55C17.9587 55 19.3576 54.4205 20.3891 53.3891C21.4205 52.3576 22 50.9587 22 49.5C22 48.0413 21.4205 46.6424 20.3891 45.6109C19.3576 44.5795 17.9587 44 16.5 44Z" fill="#FCDB0C"/>
</svg>
